<svg width="184" height="44" viewBox="0 0 184 44" fill="none" xmlns="http://www.w3.org/2000/svg">
<path fill-rule="evenodd" clip-rule="evenodd" d="M14.2344 5.59491L0 24.8174L10.6561 39.2443L17.8126 29.693L28.3508 43.96H35.5073L21.3909 24.8174L35.586 5.59491H28.4294L10.7348 29.6131L7.15651 24.8574L21.3516 5.59491H14.2344ZM28.5474 24.8574L42.7818 5.59491L46.3207 10.6303L35.8219 24.8574L46.4387 39.2843L42.7031 44L28.5474 24.8574Z" fill="black"/>
<path d="M183.907 3.75658H180.21V0H176.986V3.75658H173.29V7.03361H176.986V10.7902H180.21V7.03361H183.907V3.75658Z" fill="black"/>
<path fill-rule="evenodd" clip-rule="evenodd" d="M140.142 35.9273C131.727 35.9273 125.003 29.0935 125.003 20.5413C125.003 11.9891 131.727 5.15531 140.142 5.15531C148.557 5.15531 155.281 11.9891 155.281 20.5413C155.241 29.0935 148.557 35.9273 140.142 35.9273ZM140.142 31.4114C146.119 31.4114 150.759 26.5758 150.759 20.5413C150.759 14.5068 146.119 9.67121 140.142 9.67121C134.165 9.67121 129.525 14.5068 129.525 20.5413C129.525 26.5758 134.165 31.4114 140.142 31.4114ZM166.448 35.9273C161.533 35.9273 157.011 33.5695 155.438 28.614L155.123 27.6549L159.134 25.257L159.567 26.8156C160.471 30.0926 163.263 31.4114 166.448 31.4114C169.161 31.4114 171.953 30.4124 171.953 27.2153C171.953 26.0164 171.481 25.257 170.537 24.5777C169.24 23.6585 167.352 23.059 165.858 22.5395C161.415 21.1008 156.46 19.5422 156.46 13.7875C156.46 8.39237 160.825 5.19528 165.858 5.19528C170.262 5.19528 173.958 7.5931 175.649 11.7094L176.082 12.7484L172.149 14.9464L171.599 13.6276C170.537 11.03 168.571 9.67121 165.819 9.67121C163.381 9.67121 160.982 10.9101 160.982 13.6676C160.982 14.7866 161.375 15.5459 162.28 16.1853C163.499 17.0645 165.268 17.584 166.684 18.0636C171.166 19.5822 176.436 21.3406 176.436 27.0954C176.436 29.6131 175.492 31.891 173.565 33.5295C171.638 35.2879 169.004 35.9273 166.448 35.9273ZM110.061 23.7384V35.4877H105.539V5.59491H110.061V16.6249L121.425 5.59491H127.756L112.853 20.1817L128.07 35.4877H121.818L110.061 23.7384ZM58.8643 23.7384V35.4877H54.3423V5.59491H58.8643V16.6249L70.2282 5.59491H76.5589L61.6561 20.1417L76.8735 35.4478H70.6214L58.8643 23.7384ZM87.6083 35.9273C79.1935 35.9273 72.4695 29.0935 72.4695 20.5413C72.4695 11.9891 79.1935 5.15531 87.6083 5.15531C96.0231 5.15531 102.747 11.9891 102.747 20.5413C102.708 29.0935 96.0231 35.9273 87.6083 35.9273ZM87.6083 31.4114C93.5852 31.4114 98.2251 26.5758 98.2251 20.5413C98.2251 14.5068 93.5852 9.67121 87.6083 9.67121C81.6707 9.67121 76.9915 14.5068 76.9915 20.5413C76.9915 26.5758 81.6314 31.4114 87.6083 31.4114Z" fill="black"/>
<path fill-rule="evenodd" clip-rule="evenodd" d="M54.3423 37.9655H183.946V38.2452H54.3423V37.9655Z" fill="black"/>
<path d="M54.4603 43.8401H54.5389C54.6175 43.8401 54.6962 43.7602 54.6962 43.6803V42.1217H54.8928L56.4657 43.8002C56.505 43.8401 56.5443 43.8401 56.5836 43.8401H56.7409C56.8982 43.8401 56.9375 43.7602 56.8195 43.6803L55.286 42.0418L56.7409 40.3233C56.8196 40.2434 56.7802 40.2034 56.7016 40.2034H56.6229C56.5836 40.2034 56.5443 40.2035 56.505 40.2434L55.0501 41.9219H54.7355V40.3633C54.7355 40.2834 54.6569 40.2034 54.5782 40.2034H54.4996C54.4209 40.2034 54.3423 40.2834 54.3423 40.3633V43.6803C54.303 43.8002 54.3816 43.8401 54.4603 43.8401ZM62.5212 43.8801C63.5435 43.8801 64.4086 43.0409 64.4086 42.0018C64.4086 40.9628 63.5435 40.1235 62.5212 40.1235C61.4988 40.1235 60.6337 40.9228 60.6337 42.0018C60.6337 43.0409 61.4595 43.8801 62.5212 43.8801ZM62.5212 40.3233C63.3469 40.3233 64.0154 41.0027 64.0154 42.0018C64.0154 43.0009 63.3469 43.6803 62.5212 43.6803C61.6954 43.6803 61.0269 43.0009 61.0269 42.0018C60.9876 41.0027 61.6954 40.3233 62.5212 40.3233ZM68.7733 43.6803C68.7733 43.7602 68.8519 43.8401 68.9306 43.8401H69.0092C69.0879 43.8401 69.1665 43.7602 69.1665 43.6803V42.4414H70.2282C70.936 42.4414 71.4078 41.9219 71.4078 41.3224C71.4078 40.683 70.8966 40.2034 70.2282 40.2034H68.9306C68.8519 40.2034 68.7733 40.2834 68.7733 40.3633V43.6803ZM69.1665 40.4033H70.1495C70.7394 40.4033 71.0539 40.8429 71.0539 41.3224C71.0539 41.802 70.7787 42.2416 70.1495 42.2416H69.1665V40.4033ZM75.7725 40.3633V43.6803C75.7725 43.7602 75.8512 43.8401 75.9298 43.8401H78.2498C78.3284 43.8401 78.3284 43.8002 78.3284 43.7602C78.3284 43.7202 78.2891 43.6803 78.2498 43.6803H76.1657V42.1617H78.0138C78.0532 42.1617 78.0925 42.1217 78.0925 42.0817C78.0925 42.0018 78.0532 42.0018 78.0138 42.0018H76.1657V40.4832H78.2498C78.3284 40.4832 78.3284 40.4432 78.3284 40.4033C78.3284 40.3633 78.2891 40.3233 78.2498 40.3233H75.9298C75.8512 40.2034 75.7725 40.2434 75.7725 40.3633ZM82.8111 43.5604V40.2834C82.8111 40.2434 82.7717 40.2034 82.7324 40.2034C82.6931 40.2034 82.6538 40.2434 82.6538 40.2834V43.6803C82.6538 43.7602 82.7324 43.8401 82.8111 43.8401H83.0077C83.047 43.8401 83.0863 43.8002 83.1256 43.7602L85.4849 40.4432V43.7202C85.4849 43.7602 85.5242 43.8002 85.5636 43.8002C85.6029 43.8002 85.6422 43.7602 85.6422 43.7202V40.3633C85.6422 40.2834 85.5636 40.2034 85.4849 40.2034H85.3276C85.2883 40.2034 85.249 40.2434 85.2097 40.2834L82.8111 43.5604ZM84.148 39.8438C84.4626 39.8438 84.7771 39.644 84.8164 39.2843C84.8164 39.2443 84.7771 39.2044 84.7378 39.2044C84.6985 39.2044 84.6592 39.2443 84.6198 39.2843C84.5805 39.4441 84.3446 39.5241 84.148 39.5241C83.9514 39.5241 83.7548 39.4441 83.6761 39.2843C83.6761 39.2443 83.6368 39.2044 83.5582 39.2044C83.5188 39.2044 83.4795 39.2443 83.4795 39.2843C83.5188 39.644 83.8334 39.8438 84.148 39.8438ZM91.973 43.8801C92.5235 43.8801 92.956 43.6803 93.2312 43.3606C93.3099 43.2407 93.3099 43.1608 93.2312 43.0808C93.1526 43.0009 93.0346 43.0009 92.956 43.1208C92.7987 43.3606 92.5235 43.6803 91.9336 43.6803C91.1079 43.6803 90.4394 43.0409 90.4394 42.0018C90.4394 40.9628 91.1079 40.3233 91.9336 40.3233C92.6807 40.3233 92.9167 40.8429 92.9167 41.1626C92.9167 41.2425 92.956 41.2825 92.956 41.2825C93.074 41.2825 93.2312 41.0826 93.2312 40.9228C93.2312 40.6031 92.7594 40.1235 91.8943 40.1235C90.872 40.1235 90.0069 40.9628 90.0069 42.0018C90.0855 43.0808 90.9113 43.8801 91.973 43.8801ZM97.7925 43.8401H97.8712C97.9498 43.8401 98.0285 43.7602 98.0285 43.6803V42.1217H98.2251L99.7979 43.8002C99.8373 43.8401 99.8766 43.8401 99.9159 43.8401H100.073C100.23 43.8401 100.27 43.7602 100.152 43.6803L98.6183 42.0418L100.073 40.3233C100.152 40.2434 100.113 40.2034 100.034 40.2034H99.9552C99.9159 40.2034 99.8766 40.2035 99.8373 40.2434L98.3824 41.9219H98.0678V40.3633C98.0678 40.2834 97.9892 40.2034 97.9105 40.2034H97.8319C97.7532 40.2034 97.6746 40.2834 97.6746 40.3633V43.6803C97.6353 43.8002 97.7139 43.8401 97.7925 43.8401ZM104.123 43.8401H104.163C104.241 43.8401 104.241 43.8002 104.281 43.7602L104.674 42.921H106.954L107.348 43.7602C107.387 43.8002 107.426 43.8401 107.505 43.8401H107.623C107.741 43.8401 107.78 43.7602 107.741 43.6403L106.168 40.2434C106.129 40.2035 106.089 40.1635 106.011 40.1635H105.775C105.735 40.1635 105.657 40.2035 105.618 40.2434L104.045 43.6803C104.005 43.8002 104.045 43.8401 104.123 43.8401ZM104.752 42.7212L105.814 40.4432L106.876 42.7212H104.752ZM111.555 43.8801C111.594 43.8801 111.634 43.8801 111.673 43.8801C112.42 43.8801 112.027 42.5213 113.01 42.4414H114.032V43.6803C114.032 43.7602 114.111 43.8401 114.19 43.8401H114.268C114.347 43.8401 114.426 43.7602 114.426 43.6803V40.3633C114.426 40.2834 114.347 40.2034 114.268 40.2034H112.813C112.145 40.2034 111.634 40.683 111.634 41.3224C111.634 41.842 112.027 42.2816 112.577 42.4015C111.791 42.6013 111.87 43.7203 111.555 43.8401C111.476 43.8401 111.476 43.8801 111.555 43.8801ZM112.853 40.4033H113.993V42.2816H112.853C112.224 42.2816 111.948 41.802 111.948 41.3624C111.948 40.8429 112.224 40.4033 112.853 40.4033ZM122.998 43.8401H123.076C123.155 43.8401 123.234 43.7602 123.234 43.6803V42.1217H123.43L125.003 43.8002C125.042 43.8401 125.082 43.8401 125.121 43.8401H125.278C125.436 43.8401 125.475 43.7602 125.357 43.6803L123.823 42.0418L125.278 40.3233C125.357 40.2434 125.318 40.2034 125.239 40.2034H125.16C125.121 40.2034 125.082 40.2035 125.042 40.2434L123.587 41.9219H123.273V40.3633C123.273 40.2834 123.194 40.2034 123.116 40.2034H123.037C122.958 40.2034 122.88 40.2834 122.88 40.3633V43.6803C122.84 43.8002 122.88 43.8401 122.998 43.8401ZM131.019 43.8801C132.042 43.8801 132.907 43.0409 132.907 42.0018C132.907 40.9628 132.042 40.1235 131.019 40.1235C129.997 40.1235 129.132 40.9228 129.132 42.0018C129.132 43.0409 129.997 43.8801 131.019 43.8801ZM131.019 40.3233C131.845 40.3233 132.513 41.0027 132.513 42.0018C132.513 43.0009 131.845 43.6803 131.019 43.6803C130.193 43.6803 129.525 43.0009 129.525 42.0018C129.525 41.0027 130.193 40.3233 131.019 40.3233ZM139.001 43.8801C139.552 43.8801 139.985 43.6803 140.26 43.3606C140.338 43.2407 140.338 43.1608 140.26 43.0808C140.181 43.0009 140.063 43.0009 139.984 43.1208C139.827 43.3606 139.552 43.6803 138.962 43.6803C138.136 43.6803 137.468 43.0409 137.468 42.0018C137.468 40.9628 138.136 40.3233 138.962 40.3233C139.709 40.3233 139.945 40.8429 139.945 41.1626C139.945 41.2425 139.984 41.2825 139.984 41.2825C140.102 41.2825 140.26 41.0826 140.26 40.9228C140.26 40.6031 139.788 40.1235 138.923 40.1235C137.9 40.1235 137.035 40.9628 137.035 42.0018C137.114 43.0808 137.94 43.8801 139.001 43.8801ZM144.664 43.7602C144.664 43.8002 144.703 43.8401 144.742 43.8401C144.782 43.8401 144.821 43.8002 144.821 43.7602V40.5232L146.197 42.8011C146.237 42.881 146.276 42.921 146.315 42.881C146.355 42.881 146.394 42.841 146.433 42.8011L147.77 40.5232V43.6803C147.77 43.7602 147.849 43.8401 147.927 43.8401H148.006C148.085 43.8401 148.163 43.7602 148.163 43.6803V40.3633C148.163 40.2834 148.085 40.2034 148.006 40.2034H147.849C147.809 40.2034 147.731 40.2434 147.731 40.2834L146.473 42.4814L145.136 40.2834C145.096 40.2434 145.057 40.2034 145.018 40.2034H144.821C144.742 40.2034 144.664 40.2834 144.664 40.3633V43.7602ZM152.803 40.3633V43.6803C152.803 43.7602 152.882 43.8401 152.961 43.8401H155.281C155.359 43.8401 155.359 43.8002 155.359 43.7602C155.359 43.7202 155.32 43.6803 155.281 43.6803H153.197V42.1617H155.045C155.084 42.1617 155.123 42.1217 155.123 42.0817C155.123 42.0018 155.084 42.0018 155.045 42.0018H153.197V40.4832H155.281C155.359 40.4832 155.359 40.4432 155.359 40.4033C155.359 40.3633 155.32 40.3233 155.281 40.3233H152.961C152.882 40.2034 152.803 40.2434 152.803 40.3633ZM159.252 40.2834C159.252 40.3233 159.291 40.3633 159.331 40.3633H160.471V43.6403C160.471 43.7203 160.55 43.8002 160.628 43.8002H160.707C160.786 43.8002 160.864 43.7203 160.864 43.6403V40.3633H162.005C162.044 40.3633 162.083 40.3233 162.083 40.2834C162.083 40.2434 162.044 40.2034 162.005 40.2034H159.37C159.291 40.2034 159.252 40.2434 159.252 40.2834ZM166.409 43.8401H166.605C166.644 43.8401 166.684 43.8002 166.723 43.7602L169.082 40.4432V43.7202C169.082 43.7602 169.122 43.8002 169.161 43.8002C169.2 43.8002 169.24 43.7602 169.24 43.7202V40.3633C169.24 40.2834 169.161 40.2034 169.082 40.2034H168.886C168.846 40.2034 168.768 40.2434 168.768 40.2834L166.409 43.6004V40.3233C166.409 40.2834 166.369 40.2434 166.33 40.2434C166.291 40.2434 166.251 40.2834 166.251 40.3233V43.7202C166.251 43.8002 166.33 43.8401 166.409 43.8401ZM174.076 43.8401H174.155C174.234 43.8401 174.312 43.7602 174.312 43.6803V42.1217H174.509L176.082 43.8002C176.121 43.8401 176.16 43.8401 176.2 43.8401H176.357C176.514 43.8401 176.553 43.7602 176.436 43.6803L174.902 42.0418L176.357 40.3233C176.436 40.2434 176.396 40.2034 176.318 40.2034H176.239C176.2 40.2034 176.16 40.2035 176.121 40.2434L174.666 41.9219H174.351V40.3633C174.351 40.2834 174.273 40.2034 174.194 40.2034H174.116C174.037 40.2034 173.958 40.2834 173.958 40.3633V43.6803C173.919 43.8002 173.998 43.8401 174.076 43.8401ZM180.368 43.8401H180.407C180.486 43.8401 180.486 43.8002 180.525 43.7602L180.918 42.921H183.199L183.592 43.7602C183.631 43.8002 183.671 43.8401 183.749 43.8401H183.867C183.985 43.8401 184.025 43.7602 183.985 43.6403L182.412 40.2434C182.373 40.2035 182.334 40.1635 182.255 40.1635H182.059C182.019 40.1635 181.941 40.2035 181.901 40.2434L180.328 43.6803C180.289 43.8002 180.328 43.8401 180.368 43.8401ZM180.997 42.7212L182.059 40.4432L183.12 42.7212H180.997Z" fill="black"/>
</svg>
